<svg width="64" height="64" viewBox="0 0 64 64" fill="none" xmlns="http://www.w3.org/2000/svg">
<g clip-path="url(#clip0_2382_5249)">
<path d="M31.9998 11.2012L2.81055 22.1474L31.9998 36.742L45.9023 29.7908L32.8602 25.8033C32.5916 25.9321 32.2977 25.9993 31.9998 25.9999C31.4694 25.9999 30.9607 25.7892 30.5856 25.4141C30.2105 25.0391 29.9998 24.5304 29.9998 23.9999C29.9998 23.4695 30.2105 22.9608 30.5856 22.5857C30.9607 22.2106 31.4694 21.9999 31.9998 21.9999L31.669 23.0752L33.9862 23.788L33.9872 23.795L37.4064 24.8407L56.8748 30.8305V32.3488C56.6055 32.532 56.3851 32.7782 56.2326 33.0659C56.0801 33.3537 56.0002 33.6744 55.9998 34C56.0002 34.3332 56.0837 34.661 56.2429 34.9536C56.4021 35.2463 56.6319 35.4945 56.9114 35.6758C56.001 39.1164 55.9998 46.9228 55.9998 49.9999C57.9998 51.2993 57.9998 51.3468 59.9998 49.9999C59.9998 46.9232 59.9988 39.1183 59.0885 35.6769C59.3682 35.4955 59.598 35.247 59.7571 34.9541C59.9163 34.6613 59.9997 34.3332 59.9998 33.9999C59.9998 33.6739 59.92 33.3528 59.7675 33.0646C59.615 32.7765 59.3944 32.5299 59.1248 32.3465V29.169L51.7093 26.8874L61.189 22.1474L31.9998 11.2012ZM14.9527 31.1249L13.3123 40.9674C16.5842 41.3953 20.498 43.2971 24.096 45.5458C26.1423 46.8248 28.0589 48.2287 29.6155 49.5908C30.567 50.4233 31.3627 51.222 31.9998 52.0079C32.6369 51.2219 33.4325 50.4233 34.384 49.5908C35.9407 48.2287 37.8572 46.8248 39.9035 45.5458C43.5015 43.2971 47.4154 41.3953 50.6873 40.9674L49.0467 31.1249H48.2654L31.9998 39.2578L15.7339 31.1249H14.9527Z" fill="#565656"/>
</g>
<defs>
<clipPath id="clip0_2382_5249">
<rect width="64" height="64" fill="white"/>
</clipPath>
</defs>
</svg>
