<svg width="64" height="64" viewBox="0 0 64 64" fill="none" xmlns="http://www.w3.org/2000/svg">
<g clip-path="url(#clip0_2382_5179)">
<path d="M2.6665 42.6666V41.1333C2.6665 38.5111 3.93317 36.7777 6.4665 35.9333C8.99984 35.0888 11.2887 34.6666 13.3332 34.6666C15.3776 34.6666 17.6665 35.0888 20.1998 35.9333C22.7332 36.7777 23.9998 38.5111 23.9998 41.1333V42.6666H2.6665ZM13.3332 32C11.8665 32 10.6114 31.4782 9.56784 30.4346C8.52428 29.3911 8.00162 28.1351 7.99984 26.6666C7.99806 25.1982 8.52073 23.9431 9.56784 22.9013C10.6149 21.8595 11.8701 21.3368 13.3332 21.3333C14.7963 21.3297 16.0523 21.8524 17.1012 22.9013C18.1501 23.9502 18.6718 25.2053 18.6665 26.6666C18.6612 28.128 18.1394 29.384 17.1012 30.4346C16.0629 31.4853 14.8069 32.0071 13.3332 32ZM25.7998 35.8C25.2665 35.8 24.7998 35.6 24.3998 35.2C23.9998 34.8 23.7998 34.3333 23.7998 33.8C23.7998 33.5333 23.9998 33.0666 24.3998 32.4C24.7554 31.9555 24.9998 31.4666 25.1332 30.9333C25.2665 30.4 25.3332 29.8666 25.3332 29.3333C25.3332 28.8 25.2665 28.2782 25.1332 27.768C24.9998 27.2577 24.7554 26.7795 24.3998 26.3333C24.2221 26.1111 24.0781 25.8782 23.9678 25.6346C23.8576 25.3911 23.8016 25.1351 23.7998 24.8666C23.7998 24.2888 23.9892 23.8115 24.3678 23.4346C24.7465 23.0577 25.2238 22.8684 25.7998 22.8666C26.1554 22.8666 26.4781 22.9671 26.7678 23.168C27.0576 23.3688 27.3127 23.6017 27.5332 23.8666C28.1109 24.6666 28.5554 25.5333 28.8665 26.4666C29.1776 27.4 29.3332 28.3555 29.3332 29.3333C29.3332 30.3111 29.1776 31.256 28.8665 32.168C28.5554 33.08 28.1109 33.9573 27.5332 34.8C27.3109 35.0666 27.0558 35.3004 26.7678 35.5013C26.4798 35.7022 26.1572 35.8017 25.7998 35.8ZM31.4665 41.5333C30.8887 41.5333 30.3998 41.3448 29.9998 40.968C29.5998 40.5911 29.3998 40.1128 29.3998 39.5333C29.3998 39.2666 29.4558 39.0115 29.5678 38.768C29.6798 38.5244 29.8238 38.2906 29.9998 38.0666C31.1109 36.8222 31.9447 35.4444 32.5012 33.9333C33.0576 32.4222 33.3349 30.8888 33.3332 29.3333C33.3314 27.7777 33.0541 26.2551 32.5012 24.7653C31.9483 23.2755 31.1145 21.9093 29.9998 20.6666C29.8221 20.4444 29.6781 20.2222 29.5678 20C29.4576 19.7777 29.4016 19.5333 29.3998 19.2666C29.3998 18.6888 29.5892 18.2 29.9678 17.8C30.3465 17.4 30.8238 17.2 31.3998 17.2C31.7109 17.2 31.9998 17.2666 32.2665 17.4C32.5332 17.5333 32.7776 17.7111 32.9998 17.9333C34.4665 19.5777 35.5554 21.3777 36.2665 23.3333C36.9776 25.2888 37.3332 27.2888 37.3332 29.3333C37.3332 31.3777 36.9661 33.3893 36.2318 35.368C35.4976 37.3466 34.4203 39.1573 32.9998 40.8C32.7776 41.0222 32.5447 41.2 32.3012 41.3333C32.0576 41.4666 31.7794 41.5333 31.4665 41.5333ZM39.9998 42.6666V41.1333C39.9998 38.5111 41.2665 36.7777 43.7998 35.9333C46.3332 35.0888 48.6221 34.6666 50.6665 34.6666C52.7109 34.6666 54.9998 35.0888 57.5332 35.9333C60.0665 36.7777 61.3332 38.5111 61.3332 41.1333V42.6666H39.9998ZM50.6665 32C49.1998 32 47.9447 31.4782 46.9012 30.4346C45.8576 29.3911 45.3349 28.1351 45.3332 26.6666C45.3314 25.1982 45.8541 23.9431 46.9012 22.9013C47.9483 21.8595 49.2034 21.3368 50.6665 21.3333C52.1296 21.3297 53.3856 21.8524 54.4345 22.9013C55.4834 23.9502 56.0052 25.2053 55.9998 26.6666C55.9945 28.128 55.4727 29.384 54.4345 30.4346C53.3963 31.4853 52.1403 32.0071 50.6665 32Z" fill="#565656"/>
</g>
<defs>
<clipPath id="clip0_2382_5179">
<rect width="64" height="64" fill="white"/>
</clipPath>
</defs>
</svg>
