<svg width="112" height="32" viewBox="0 0 112 32" fill="none" xmlns="http://www.w3.org/2000/svg">
<path d="M46.4482 7.42342C47.3545 7.42342 47.8077 7.70369 47.8077 8.28845V20.0891C47.8077 20.9257 48.0535 21.6106 48.5212 22.1437C48.7373 22.3971 49.0057 22.5989 49.3074 22.7348C49.6091 22.8707 49.9366 22.9372 50.2665 22.9297C51.0048 22.9297 51.5949 22.6762 52.0367 22.169C52.4795 21.6612 52.7003 20.9521 52.7003 20.0618V8.26106C52.7003 7.67735 53.1535 7.39603 54.0599 7.39603C54.9662 7.39603 55.4194 7.67735 55.4194 8.26106V19.851C55.4194 21.5116 54.9389 22.85 53.978 23.8664C53.0166 24.8821 51.7909 25.3784 50.2779 25.3784C49.4762 25.3925 48.6836 25.205 47.9705 24.8326C47.3025 24.4878 46.7315 23.9762 46.3113 23.3459C45.891 23.9762 45.3201 24.4878 44.652 24.8326C43.9408 25.2082 43.1493 25.3993 42.3478 25.3889C40.8337 25.3889 39.608 24.8684 38.6467 23.8527C37.6853 22.837 37.2052 21.4979 37.2052 19.8373V8.28213C37.2052 7.63942 37.704 7.33386 38.7006 7.33386C39.6972 7.33386 40.196 7.64258 40.196 8.28213V20.1208C40.196 20.9637 40.4034 21.6064 40.8234 22.0858C41.2434 22.5652 41.7982 22.8044 42.494 22.8044C42.8053 22.8121 43.1144 22.75 43.3994 22.6225C43.6844 22.4951 43.9383 22.3053 44.1429 22.0668C44.5846 21.5642 44.8169 20.9173 44.8169 20.126V8.26738C44.8169 7.80905 45.294 7.42447 46.051 7.42447L46.4482 7.42342Z" fill="white"/>
<path d="M69.5596 19.639C69.5596 21.3459 69.0089 22.7314 67.9294 23.7714C66.8498 24.8113 65.482 25.3297 63.8508 25.3297C62.2195 25.3297 60.8527 24.8103 59.7732 23.7714C58.6937 22.7325 58.142 21.348 58.142 19.639V13.0085C58.142 11.3016 58.6937 9.9161 59.7732 8.87616C60.8527 7.83623 62.2247 7.31784 63.8508 7.31784C65.4768 7.31784 66.8498 7.83728 67.9284 8.87616C69.0069 9.91504 69.5585 11.2995 69.5585 13.0085L69.5596 19.639ZM66.5699 13.1065C66.5699 12.0919 66.3064 11.3006 65.7776 10.7063C65.2487 10.1121 64.5549 9.816 63.7149 9.816C62.8749 9.816 62.1801 10.1131 61.6523 10.7063C61.1244 11.2995 60.861 12.0919 60.861 13.1065V19.5337C60.861 20.5483 61.1244 21.3396 61.6523 21.9338C62.1801 22.5281 62.876 22.8242 63.7149 22.8242C64.5539 22.8242 65.2497 22.527 65.7776 21.9338C66.3054 21.3406 66.5699 20.5483 66.5699 19.5337V13.1065Z" fill="white"/>
<path d="M76.4104 24.0972C75.3734 22.7791 74.44 21.1586 73.6353 19.2578C72.9362 17.6294 72.5768 15.8716 72.5796 14.095V8.28213C72.5796 7.63942 73.0774 7.33386 74.074 7.33386C75.0705 7.33386 75.5693 7.64258 75.5693 8.28213V14.1509C75.566 15.4571 75.8041 16.7523 76.2714 17.9692C76.7547 19.2915 77.4806 20.6634 78.4243 22.0858C79.368 20.6634 80.0939 19.2915 80.5771 17.9692C81.0441 16.7523 81.2819 15.457 81.2782 14.1509V8.28213C81.2782 7.63942 81.777 7.33386 82.7736 7.33386C83.7702 7.33386 84.269 7.64258 84.269 8.28213V14.0908C84.2718 15.8674 83.9124 17.6252 83.2133 19.2536C82.4023 21.1502 81.469 22.7749 80.4382 24.093C79.7506 24.9538 79.0901 25.3847 78.4243 25.3847C77.7585 25.3847 77.0979 24.958 76.4104 24.0972Z" fill="white"/>
<path d="M88.1168 25.1622C87.5682 25.1622 87.2944 24.8461 87.2944 24.1876V8.45993C87.2944 7.80247 87.5682 7.48532 88.1168 7.48532H96.3663C96.8848 7.48532 97.1638 7.8994 97.1638 8.72861C97.1638 9.55782 96.889 9.97085 96.3663 9.97085H90.2852V14.6669H95.4589C95.9546 14.6669 96.2149 15.081 96.2149 15.9091C96.2149 16.7373 95.9546 17.1524 95.4589 17.1524H90.2852V22.6766H96.4897C97.0134 22.6766 97.2882 23.0907 97.2882 23.9199C97.2882 24.7491 97.0134 25.1622 96.4897 25.1622H88.1168Z" fill="white"/>
<path d="M103.251 24.3754C103.251 25.0076 102.761 25.3111 101.78 25.3111C100.799 25.3111 100.31 25.0076 100.31 24.3754V13.0046C100.31 11.2714 100.87 9.86478 101.99 8.8101C103.11 7.75541 104.499 7.22964 106.155 7.22964C107.811 7.22964 109.199 7.75646 110.32 8.8101C111.441 9.86373 112 11.2735 112 13.0046V24.367C112 25.0097 111.501 25.3153 110.504 25.3153C109.508 25.3153 109.009 25.0066 109.009 24.367V13.071C109.009 12.0563 108.744 11.2651 108.218 10.6708C107.691 10.0766 106.994 9.78049 106.155 9.78049C105.316 9.78049 104.619 10.0776 104.092 10.6708C103.566 11.264 103.3 12.0563 103.3 13.071L103.251 24.3754Z" fill="white"/>
<path d="M27.4493 21.3897V26.5346H28.6222C29.8055 26.5346 30.8808 25.736 31.1432 24.5633C31.2319 24.1846 31.2349 23.7905 31.1522 23.4105C31.0695 23.0305 30.9032 22.6745 30.6657 22.3691C30.4282 22.0637 30.1258 21.817 29.781 21.6474C29.4362 21.4777 29.0582 21.3896 28.6751 21.3897H27.4493Z" fill="white"/>
<path d="M19.9834 21.3897H2.61435C1.43215 21.3897 0.355719 22.1894 0.0943892 23.3611C0.00562422 23.7394 0.00231048 24.1332 0.0846964 24.513C0.167082 24.8927 0.33303 25.2486 0.570094 25.554C0.807158 25.8593 1.10919 26.1062 1.45353 26.276C1.79787 26.4458 2.17559 26.5342 2.55835 26.5346H19.9803L19.9834 21.3897Z" fill="white"/>
<path d="M26.1143 3.79075V2.63175C26.1143 1.42745 25.3251 0.331666 24.1688 0.0703649C23.7985 -0.0195065 23.4129 -0.0233384 23.0409 0.0591544C22.6689 0.141647 22.3201 0.308339 22.0203 0.546819C21.7205 0.785298 21.4775 1.08942 21.3094 1.43654C21.1413 1.78366 21.0524 2.16483 21.0494 2.55167V3.79075H26.1143Z" fill="white"/>
<path d="M21.0494 11.6451V29.3672C21.0494 30.5715 21.8386 31.6673 22.9949 31.9296C23.3657 32.0196 23.7517 32.0234 24.1241 31.9405C24.4965 31.8577 24.8457 31.6904 25.1455 31.4512C25.4454 31.212 25.6881 30.907 25.8557 30.5591C26.0233 30.2112 26.1113 29.8293 26.1132 29.442V11.6451H21.0494Z" fill="white"/>
<path d="M3.73368 5.14218H2.60955C1.34127 5.14218 0.207803 6.05673 0.0273611 7.33374C-0.0259852 7.69946 -0.00113101 8.07256 0.100231 8.42765C0.201593 8.78273 0.377082 9.11145 0.614746 9.39141C0.852411 9.67138 1.14667 9.89602 1.47748 10.05C1.80829 10.204 2.16788 10.2838 2.53177 10.2839H3.73368V5.14218Z" fill="white"/>
<path d="M11.4594 5.14203V10.2869H28.6739C29.9432 10.2869 31.0767 9.37237 31.2582 8.09642C31.3114 7.73064 31.2864 7.35751 31.1849 7.00243C31.0834 6.64735 30.9078 6.31865 30.67 6.0387C30.4323 5.75876 30.138 5.53414 29.8071 5.38014C29.4763 5.22614 29.1167 5.14636 28.7527 5.14624L11.4594 5.14203Z" fill="white"/>
<path d="M10.1263 20.3074V2.80335C10.1263 1.6001 9.33815 0.503272 8.18187 0.240918C7.81102 0.15093 7.42496 0.147218 7.0525 0.230061C6.68004 0.312903 6.33082 0.480159 6.03089 0.719341C5.73097 0.958523 5.4881 1.26345 5.32042 1.61136C5.15273 1.95927 5.06457 2.34117 5.0625 2.72854V20.3074H10.1263Z" fill="white"/>
<path d="M5.0625 27.8925V29.2738C5.0625 30.477 5.85064 31.5739 7.00692 31.8362C7.37777 31.9262 7.76383 31.9299 8.13629 31.8471C8.50874 31.7642 8.85797 31.597 9.15789 31.3578C9.45781 31.1186 9.70068 30.8137 9.86837 30.4658C10.0361 30.1179 10.1242 29.736 10.1263 29.3486V27.8925H5.0625Z" fill="white"/>
</svg>
